<svg width="20" height="20" viewBox="0 0 20 20" fill="none" xmlns="http://www.w3.org/2000/svg">
<path d="M15.9297 0.976562C15.1445 0.976562 14.3594 1.28125 13.75 1.89062L1.89062 13.75L1.84375 13.9844L1.02344 18.1094L0.789062 19.2109L1.89062 18.9766L6.01562 18.1562L6.25 18.1094L18.1094 6.25C19.3281 5.03125 19.3281 3.10938 18.1094 1.89062C17.5 1.28125 16.7148 0.976562 15.9297 0.976562ZM15.9297 2.40625C16.3076 2.40625 16.6885 2.5791 17.0547 2.94531C17.7842 3.6748 17.7842 4.46582 17.0547 5.19531L16.5156 5.71094L14.2891 3.48438L14.8047 2.94531C15.1709 2.5791 15.5518 2.40625 15.9297 2.40625ZM13.2344 4.53906L15.4609 6.76562L6.39062 15.8359C5.89844 14.875 5.125 14.1016 4.16406 13.6094L13.2344 4.53906ZM3.20312 14.8281C4.10254 15.1914 4.80859 15.8975 5.17188 16.7969L2.71094 17.2891L3.20312 14.8281Z" fill="white"/>
</svg>
